<svg id="visual" viewBox="0 0 900 600" width="900" height="600" xmlns="http://www.w3.org/2000/svg" xmlns:xlink="http://www.w3.org/1999/xlink" version="1.1"><rect x="0" y="0" width="900" height="600" fill="#262740"></rect><defs><linearGradient id="grad1_0" x1="33.3%" y1="0%" x2="100%" y2="100%"><stop offset="20%" stop-color="#d08999" stop-opacity="1"></stop><stop offset="80%" stop-color="#d08999" stop-opacity="1"></stop></linearGradient></defs><defs><linearGradient id="grad1_1" x1="33.3%" y1="0%" x2="100%" y2="100%"><stop offset="20%" stop-color="#d08999" stop-opacity="1"></stop><stop offset="80%" stop-color="#785574" stop-opacity="1"></stop></linearGradient></defs><defs><linearGradient id="grad1_2" x1="33.3%" y1="0%" x2="100%" y2="100%"><stop offset="20%" stop-color="#262740" stop-opacity="1"></stop><stop offset="80%" stop-color="#785574" stop-opacity="1"></stop></linearGradient></defs><defs><linearGradient id="grad2_0" x1="0%" y1="0%" x2="66.7%" y2="100%"><stop offset="20%" stop-color="#d08999" stop-opacity="1"></stop><stop offset="80%" stop-color="#d08999" stop-opacity="1"></stop></linearGradient></defs><defs><linearGradient id="grad2_1" x1="0%" y1="0%" x2="66.7%" y2="100%"><stop offset="20%" stop-color="#785574" stop-opacity="1"></stop><stop offset="80%" stop-color="#d08999" stop-opacity="1"></stop></linearGradient></defs><defs><linearGradient id="grad2_2" x1="0%" y1="0%" x2="66.7%" y2="100%"><stop offset="20%" stop-color="#785574" stop-opacity="1"></stop><stop offset="80%" stop-color="#262740" stop-opacity="1"></stop></linearGradient></defs><g transform="translate(900, 0)"><path d="M0 378.6C-69 370.3 -137.9 361.9 -189.3 327.9C-240.7 293.8 -274.5 233.9 -303.1 175C-331.7 116.1 -355.2 58 -378.6 0L0 0Z" fill="#4d3d5b"></path><path d="M0 252.4C-46 246.8 -91.9 241.3 -126.2 218.6C-160.5 195.9 -183 156 -202.1 116.7C-221.2 77.4 -236.8 38.7 -252.4 0L0 0Z" fill="#a46d88"></path><path d="M0 126.2C-23 123.4 -46 120.6 -63.1 109.3C-80.2 97.9 -91.5 78 -101 58.3C-110.6 38.7 -118.4 19.3 -126.2 0L0 0Z" fill="#d08999"></path></g><g transform="translate(0, 600)"><path d="M0 -378.6C70.8 -371.3 141.6 -364.1 189.3 -327.9C237 -291.6 261.6 -226.5 289.3 -167C316.9 -107.5 347.8 -53.8 378.6 0L0 0Z" fill="#4d3d5b"></path><path d="M0 -252.4C47.2 -247.6 94.4 -242.7 126.2 -218.6C158 -194.4 174.4 -151 192.8 -111.3C211.3 -71.7 231.8 -35.8 252.4 0L0 0Z" fill="#a46d88"></path><path d="M0 -126.2C23.6 -123.8 47.2 -121.4 63.1 -109.3C79 -97.2 87.2 -75.5 96.4 -55.7C105.6 -35.8 115.9 -17.9 126.2 0L0 0Z" fill="#d08999"></path></g></svg>