<svg id="visual" viewBox="0 0 900 600" width="900" height="600" xmlns="http://www.w3.org/2000/svg" xmlns:xlink="http://www.w3.org/1999/xlink" version="1.1"><path d="M0 85L82 55L164 115L245 115L327 121L409 127L491 109L573 73L655 103L736 73L818 73L900 73L900 0L818 0L736 0L655 0L573 0L491 0L409 0L327 0L245 0L164 0L82 0L0 0Z" fill="#a46d88"></path><path d="M0 235L82 199L164 211L245 259L327 199L409 229L491 229L573 139L655 175L736 133L818 247L900 145L900 71L818 71L736 71L655 101L573 71L491 107L409 125L327 119L245 113L164 113L82 53L0 83Z" fill="#835b79"></path><path d="M0 451L82 421L164 325L245 403L327 445L409 439L491 391L573 451L655 463L736 289L818 349L900 361L900 143L818 245L736 131L655 173L573 137L491 227L409 227L327 197L245 257L164 209L82 197L0 233Z" fill="#624968"></path><path d="M0 517L82 511L164 535L245 517L327 529L409 565L491 529L573 553L655 565L736 541L818 565L900 511L900 359L818 347L736 287L655 461L573 449L491 389L409 437L327 443L245 401L164 323L82 419L0 449Z" fill="#433855"></path><path d="M0 601L82 601L164 601L245 601L327 601L409 601L491 601L573 601L655 601L736 601L818 601L900 601L900 509L818 563L736 539L655 563L573 551L491 527L409 563L327 527L245 515L164 533L82 509L0 515Z" fill="#262740"></path></svg>