<svg id="visual" viewBox="0 0 900 600" width="900" height="600" xmlns="http://www.w3.org/2000/svg"
  xmlns:xlink="http://www.w3.org/1999/xlink" version="1.1">
  <path
    d="M0 49L82 97L164 103L245 67L327 73L409 85L491 91L573 91L655 79L736 61L818 37L900 61L900 0L818 0L736 0L655 0L573 0L491 0L409 0L327 0L245 0L164 0L82 0L0 0Z"
    fill="#a46d88"></path>
  <path
    d="M0 229L82 193L164 289L245 283L327 175L409 247L491 265L573 199L655 199L736 187L818 313L900 289L900 59L818 35L736 59L655 77L573 89L491 89L409 83L327 71L245 65L164 101L82 95L0 47Z"
    fill="#835b79"></path>
  <path
    d="M0 289L82 301L164 385L245 337L327 223L409 325L491 307L573 271L655 265L736 295L818 385L900 343L900 287L818 311L736 185L655 197L573 197L491 263L409 245L327 173L245 281L164 287L82 191L0 227Z"
    fill="#624968"></path>
  <path
    d="M0 517L82 505L164 511L245 535L327 433L409 451L491 445L573 487L655 529L736 481L818 499L900 499L900 341L818 383L736 293L655 263L573 269L491 305L409 323L327 221L245 335L164 383L82 299L0 287Z"
    fill="#433855"></path>
  <path
    d="M0 601L82 601L164 601L245 601L327 601L409 601L491 601L573 601L655 601L736 601L818 601L900 601L900 497L818 497L736 479L655 527L573 485L491 443L409 449L327 431L245 533L164 509L82 503L0 515Z"
    fill="#262740"></path>
</svg>